Coordinates
version=1
nRows=7
nColumns=33
inDegrees=yes

Units are S.I. units (second, meters, Newtons, ...)
Angles are in degrees.

endheader
time	ground_thorax_rot_x	ground_thorax_rot_y	ground_thorax_rot_z	ground_thorax_tx	ground_thorax_ty	ground_thorax_tz	clav_prot_r	clav_elev_r	scapula_abduction_r	scapula_elevation_r	scapula_upward_rot_r	scapula_winging_r	shoulder_elv_r	plane_of_elev_r	axial_rot_r	elbow_flexion_r	pro_sup_r	wrist_flex_r	wrist_dev_r	clav_prot_l	clav_elev_l	scapula_abduction_l	scapula_elevation_l	scapula_upward_rot_l	scapula_winging_l	shoulder_elv_l	plane_of_elev_l	axial_rot_l	elbow_flexion_l	pro_sup_l	wrist_flex_l	wrist_dev_l
      8.49000000	    -40.02814865	    -14.01453819	     18.08608289	   -229.47399960	    827.12570201	      4.68193740	      9.80178564	    -40.47799495	     32.24569727	    -45.00000000	     30.34598955	   2870.26759288	  -1574.11865560	    -90.00000000	    -80.28905733	   1804.06245782	    222.02360665	     18.27140433	     13.24298003	     14.56745408	     38.38010930	    -35.97590742	    -45.00000000	    -45.00000000	  -2072.23662633	     72.51082289	     24.72627543	    -12.99478098	   1089.08051159	     21.97387860	      6.71810580	    -22.63152397
      8.50000000	    -39.96965349	    -14.04048752	     18.10354612	   -228.32104671	    827.10764352	      4.67073518	      9.94106773	    -40.46907081	     32.29294405	    -45.00000000	     30.67180227	   2870.30333558	  -1574.36782887	    -90.00000000	    -80.02990162	   1804.01005585	    222.17558088	     18.28057508	     13.28489506	     14.39369632	     37.62418606	    -35.84577675	    -45.00000000	    -45.00000000	  -2072.26476765	     72.52832904	     24.90673666	    -13.02467337	   1089.04144062	     21.50337027	      6.78851028	    -22.56927771
      8.51000000	    -39.99721858	    -13.83051191	     18.09221312	   -227.04301360	    827.09157743	      4.66505090	      9.82081974	    -40.42931406	     32.00693871	    -45.00000000	     31.05951788	   2870.33680929	  -1574.59010849	    -90.00000000	    -79.79437256	   1803.85343801	    222.36642212	     18.35596912	     13.34143027	     14.36444351	     37.99849889	    -36.54280062	    -45.00000000	    -45.00000000	  -2072.18286472	     72.19964933	     24.64145608	    -12.94851078	   1089.06950076	     20.88267055	      6.91488522	    -22.54547071
      8.52000000	    -39.94086144	    -13.92322460	     18.14609354	   -225.63250870	    827.07427075	      4.66671299	      9.71113163	    -40.37592036	     32.13877971	    -45.00000000	     31.46997229	   2870.29757570	  -1574.86309155	    -90.00000000	    -79.50822747	   1803.69836273	    222.59411493	     18.37606108	     13.37276519	     14.34973164	     37.98339957	    -36.51928872	    -45.00000000	    -45.00000000	  -2072.26246444	     72.25083025	     24.58447556	    -12.99011729	   1089.12840255	     20.27743622	      7.03334855	    -22.51271259
      8.53000000	    -39.87248784	    -13.96841767	     18.22696954	   -224.08280970	    827.05272815	      4.67792195	      9.70227729	    -40.34091638	     32.27711291	    -45.00000000	     31.82291847	   2870.23318747	  -1575.10988955	    -90.00000000	    -79.24846106	   1803.51011508	    222.83472277	     18.40284642	     13.40340343	     14.22711864	     37.93488599	    -36.55135400	    -45.00000000	    -45.00000000	  -2072.33649580	     72.29097390	     24.55538523	    -12.94878067	   1089.18029553	     19.66835906	      7.15451850	    -22.46993876
      8.54000000	    -39.90782371	    -13.73784945	     18.16316968	   -222.38906831	    827.02353161	      4.70116569	      9.17400792	    -40.23551474	     32.13055034	    -45.00000000	     32.38166536	   2870.22557067	  -1575.43709631	    -90.00000000	    -78.90363600	   1803.40583199	    223.17110951	     18.47569275	     13.47212558	     14.73439789	     38.11323548	    -36.77503437	    -45.00000000	    -45.00000000	  -2072.16661625	     72.15040788	     24.94396324	    -13.08508953	   1089.14333929	     18.90803769	      7.37973902	    -22.43094870
      8.55000000	    -39.87779588	    -13.77666748	     18.24603054	   -220.55292047	    826.98314067	      4.73885672	      8.77656054	    -40.12660712	     32.27708198	    -45.00000000	     32.93163742	   2870.06558514	  -1575.70423589	    -90.00000000	    -78.61636180	   1803.23879243	    223.53761149	     18.50971643	     13.50336789	     14.94982435	     38.19907168	    -36.94356774	    -45.00000000	    -45.00000000	  -2072.15589447	     72.06541546	     24.94705001	    -13.12567408	   1089.15412194	     18.06164237	      7.57440045	    -22.36984827
